<!DOCTYPE svg PUBLIC "-//W3C//DTD SVG 20010904//EN" "http://www.w3.org/TR/2001/REC-SVG-20010904/DTD/svg10.dtd">
<svg version="1.0" xmlns="http://www.w3.org/2000/svg" width="292px" height="132px" viewBox="0 0 2920 1320" preserveAspectRatio="xMidYMid meet">
<g id="layer101" fill="#9e7e00" stroke="none">
 <path d="M779 1232 c-65 -42 -82 -73 -87 -164 l-5 -78 77 0 c95 0 106 8 106 84 0 43 3 56 15 56 42 0 42 -121 0 -144 -66 -37 -150 -103 -173 -139 -24 -36 -27 -50 -27 -123 0 -89 11 -115 69 -158 40 -30 184 -30 240 0 60 31 78 61 84 143 l5 71 -72 0 c-84 0 -101 -11 -101 -65 0 -29 -3 -36 -17 -33 -14 3 -18 13 -18 48 0 42 2 46 53 81 132 92 162 135 170 240 10 147 -48 209 -194 209 -71 0 -85 -3 -125 -28z"/>
 <path d="M33 1235 c-10 -11 -13 -95 -13 -350 l0 -335 138 0 c167 0 172 3 172 98 l0 61 -57 3 -58 3 -3 48 -3 47 34 0 c19 0 44 8 56 19 19 16 22 28 19 78 l-3 58 -52 3 -53 3 0 140 0 139 -82 0 c-59 -1 -87 -5 -95 -15z"/>
 <path d="M367 1232 c-16 -17 -17 -51 -15 -348 l3 -329 138 -3 c166 -3 167 -2 167 92 l0 65 -57 3 -58 3 -3 48 -3 47 39 0 c24 0 47 7 61 19 19 16 22 28 19 78 l-3 58 -57 3 -58 3 0 59 0 60 53 0 c73 0 89 18 85 96 l-3 59 -146 3 c-131 2 -147 1 -162 -16z"/>
 <path d="M1217 1232 c-15 -16 -17 -50 -17 -270 l0 -252 -36 0 c-52 0 -64 -18 -64 -94 l0 -66 186 0 c147 0 188 3 200 14 9 10 14 37 14 80 l0 65 -47 3 -48 3 -3 268 -2 267 -84 0 c-68 0 -86 -3 -99 -18z"/>
 <path d="M1523 1235 c-10 -11 -13 -95 -13 -350 l0 -335 86 0 c61 0 90 4 100 14 12 12 14 73 14 350 l0 336 -87 0 c-63 -1 -92 -5 -100 -15z"/>
 <path d="M1833 1236 c-13 -15 -24 -76 -43 -226 -7 -52 -20 -144 -30 -205 -10 -60 -22 -137 -25 -169 -4 -33 -9 -65 -12 -73 -8 -20 163 -19 184 2 15 15 22 58 41 250 l8 80 8 -105 c5 -58 11 -134 15 -170 l6 -65 88 -3 c69 -2 91 1 103 13 19 19 20 1 -41 470 -8 61 -17 134 -21 163 l-6 52 -131 0 c-98 -1 -135 -4 -144 -14z"/>
 <path d="M2171 1233 c-15 -17 -14 -32 30 -353 11 -80 25 -185 32 -235 l12 -90 121 -3 c105 -2 122 0 136 15 8 11 22 68 32 138 9 66 24 167 32 225 9 58 22 146 30 196 21 135 27 124 -67 124 -94 0 -106 -8 -111 -71 -2 -36 -7 -45 -25 -47 -20 -3 -23 2 -29 57 l-7 61 -86 0 c-66 -1 -89 -5 -100 -17z m231 -315 c-4 -75 -22 -121 -22 -56 0 19 -3 56 -6 82 -6 41 -5 46 12 46 18 0 19 -6 16 -72z"/>
 <path d="M2643 1235 c-10 -11 -13 -95 -13 -350 l0 -335 81 0 c56 0 85 4 95 14 11 12 14 62 14 270 l0 256 36 0 c52 0 64 18 64 94 l0 66 -132 0 c-102 -1 -136 -4 -145 -15z"/>
 <path d="M1586 505 c-20 -7 -45 -23 -56 -35 l-19 -21 -3 28 c-3 27 -5 28 -72 31 -108 5 -106 9 -106 -230 l0 -198 73 0 c61 0 75 3 87 20 14 19 14 19 27 0 20 -28 130 -29 161 -2 24 21 42 62 42 98 0 21 -5 24 -36 24 -38 0 -59 -14 -67 -46 -3 -13 -5 -9 -6 11 -1 25 8 38 43 68 130 108 77 302 -68 252z m-48 -173 c41 -4 72 20 72 57 0 19 3 22 9 12 13 -21 6 -33 -60 -99 -47 -47 -59 -65 -59 -90 0 -29 -3 -32 -30 -32 -25 0 -30 4 -30 25 0 16 6 25 16 25 27 0 44 27 44 69 0 39 -2 41 -30 41 -27 0 -30 3 -30 30 0 25 4 30 25 30 14 0 26 6 27 13 0 6 4 -8 7 -33 6 -42 8 -45 39 -48z"/>
 <path d="M2115 506 c-16 -7 -41 -26 -55 -41 -24 -26 -25 -32 -28 -179 -3 -142 -2 -153 18 -179 19 -24 28 -27 84 -27 67 0 94 16 114 70 l10 25 7 -30 c13 -53 32 -65 101 -65 57 0 64 2 88 31 l26 31 0 -31 0 -31 93 0 c80 0 94 3 107 20 14 19 14 19 27 0 20 -29 130 -29 163 0 21 18 44 95 34 112 -3 5 -21 8 -40 8 -35 0 -56 -12 -67 -40 -3 -9 -6 -5 -6 10 0 18 11 33 40 54 59 42 79 79 79 151 0 71 -16 100 -64 113 -43 12 -77 6 -108 -21 -34 -30 -44 -54 -47 -109 l-3 -48 36 0 c19 0 41 7 50 15 8 8 18 15 22 15 5 0 -15 -24 -44 -53 -38 -38 -54 -64 -59 -90 -5 -31 -10 -37 -29 -37 l-24 0 0 165 0 165 -36 0 c-60 0 -64 -11 -64 -179 0 -144 -1 -151 -20 -151 -11 0 -20 -4 -20 -10 0 -5 -3 -10 -7 -10 -5 0 -7 58 -5 130 3 107 0 136 -14 166 -22 46 -67 67 -115 54 -41 -12 -89 -57 -90 -84 0 -14 -7 -7 -19 22 -14 31 -29 47 -54 57 -42 18 -43 18 -81 1z"/>
 <path d="M37 492 c-15 -16 -17 -44 -17 -215 l0 -197 46 0 c74 0 75 1 72 227 l-3 198 -41 3 c-29 2 -45 -2 -57 -16z"/>
 <path d="M167 492 c-15 -16 -17 -44 -17 -215 l0 -197 76 0 c70 0 78 2 105 29 26 26 29 36 29 93 0 36 -5 69 -12 76 -9 9 -9 15 0 24 8 8 12 47 12 110 l0 98 -31 0 c-49 0 -59 -19 -61 -112 l-2 -83 -5 95 -6 95 -36 3 c-24 2 -40 -3 -52 -16z m100 -309 c-3 -10 -5 -2 -5 17 0 19 2 27 5 18 2 -10 2 -26 0 -35z"/>
 <path d="M397 492 c-15 -16 -17 -46 -17 -215 l0 -197 36 0 c62 0 64 6 64 229 l0 201 -33 0 c-20 0 -41 -8 -50 -18z"/>
 <path d="M517 492 c-15 -16 -17 -45 -17 -215 l0 -197 71 0 c82 0 99 11 99 64 0 33 -2 36 -30 36 -25 0 -30 4 -30 25 0 16 6 25 16 25 28 0 45 28 42 67 -3 33 -7 38 -30 41 -24 3 -28 8 -28 33 0 23 4 29 21 29 33 0 51 25 47 67 l-3 38 -71 3 c-58 2 -73 0 -87 -16z"/>
 <path d="M796 491 c-10 -11 -21 -47 -26 -88 -5 -37 -16 -120 -25 -183 -8 -63 -15 -121 -15 -127 0 -18 88 -17 106 1 8 8 14 26 14 40 0 14 5 26 10 26 6 0 10 -18 10 -40 l0 -40 44 0 c26 0 47 5 50 13 5 10 7 10 12 0 8 -18 72 -16 90 1 11 12 14 55 14 215 l0 201 -33 0 c-61 0 -67 -17 -68 -191 -2 -144 -2 -149 -11 -79 -5 41 -14 118 -21 170 l-12 95 -61 3 c-49 2 -63 -1 -78 -17z"/>
 <path d="M1118 493 c-16 -17 -18 -43 -18 -216 l0 -197 73 0 c68 0 75 2 102 30 36 37 46 116 21 155 -9 14 -12 25 -7 25 32 0 39 166 8 197 -8 9 -44 17 -88 20 -65 5 -76 3 -91 -14z m89 -155 c-2 -13 -4 -3 -4 22 0 25 2 35 4 23 2 -13 2 -33 0 -45z m0 -155 c-3 -10 -5 -2 -5 17 0 19 2 27 5 18 2 -10 2 -26 0 -35z"/>
 <path d="M1817 492 c-15 -16 -17 -44 -17 -215 l0 -197 78 0 c74 0 80 2 108 31 26 27 29 37 29 95 0 44 -4 67 -14 73 -11 7 -10 13 3 34 13 19 16 44 14 108 l-3 84 -33 3 c-50 5 -62 -14 -64 -110 l-2 -83 -5 95 -6 95 -36 3 c-24 2 -40 -3 -52 -16z m100 -309 c-3 -10 -5 -2 -5 17 0 19 2 27 5 18 2 -10 2 -26 0 -35z"/>
 </g>
<g id="layer102" fill="#f9d831" stroke="none">
 <path d="M768 1217 c-58 -35 -71 -60 -76 -149 l-5 -78 81 0 81 0 3 61 c2 47 7 65 21 73 48 29 61 -92 15 -141 -12 -13 -26 -23 -31 -23 -21 0 -129 -86 -150 -119 -31 -51 -32 -186 -1 -227 43 -58 68 -69 162 -69 146 0 190 38 191 163 l1 52 -74 0 -75 0 -3 -47 c-3 -44 -5 -48 -28 -48 -20 0 -26 6 -28 29 -6 52 6 72 70 114 121 79 148 119 156 224 10 145 -48 208 -194 208 -64 0 -86 -4 -116 -23z"/>
 <path d="M20 890 l0 -341 143 3 142 3 3 67 3 67 -58 3 -58 3 -3 58 -3 57 43 0 c63 0 70 8 66 76 l-3 59 -52 3 -53 3 0 140 0 139 -85 0 -85 0 0 -340z"/>
 <path d="M355 1218 c-3 -7 -4 -159 -3 -338 l3 -325 143 -3 142 -3 0 70 0 70 -57 3 -58 3 -3 58 -3 57 48 0 c69 0 75 7 71 76 l-3 59 -57 3 -58 3 0 69 0 69 68 3 67 3 0 65 0 65 -148 3 c-113 2 -149 0 -152 -10z"/>
 <path d="M1207 1223 c-4 -3 -7 -125 -7 -270 l0 -263 -50 0 -50 0 0 -70 0 -70 190 0 190 0 0 69 0 70 -47 3 -48 3 -3 268 -2 267 -83 0 c-46 0 -87 -3 -90 -7z"/>
 <path d="M1510 890 l0 -340 90 0 90 0 0 340 0 340 -90 0 -90 0 0 -340z"/>
 <path d="M1811 1163 c-5 -38 -15 -108 -22 -158 -6 -49 -19 -139 -29 -200 -10 -60 -22 -137 -25 -169 -4 -33 -9 -65 -12 -73 -4 -10 14 -13 85 -13 l91 0 6 33 c3 17 11 92 18 166 15 169 32 184 42 39 4 -57 10 -132 14 -168 l6 -65 94 -3 94 -3 -7 63 c-6 59 -15 129 -51 403 -8 61 -17 134 -21 163 l-6 52 -133 0 -133 0 -11 -67z"/>
 <path d="M2160 1204 c0 -14 4 -55 10 -92 5 -37 18 -137 30 -222 11 -85 26 -195 33 -245 l12 -90 124 0 125 0 17 110 c9 61 24 166 34 235 9 69 23 163 31 210 21 130 27 120 -71 120 l-85 0 0 -37 c0 -65 -9 -83 -41 -83 -27 0 -28 2 -35 60 l-7 60 -88 0 c-89 0 -89 0 -89 -26z m246 -236 c-3 -13 -8 -67 -11 -120 -10 -150 -22 -129 -41 70 l-7 72 32 0 c27 0 31 -3 27 -22z"/>
 <path d="M2630 890 l0 -340 85 0 85 0 0 270 0 270 50 0 50 0 0 70 0 70 -135 0 -135 0 0 -340z"/>
 <path d="M1564 484 c-21 -8 -40 -14 -40 -14 -10 -1 -25 -67 -22 -96 3 -38 4 -39 43 -39 39 0 40 1 43 38 2 23 8 37 17 37 31 0 24 -67 -9 -80 -12 -4 -38 -26 -59 -49 -34 -37 -37 -46 -37 -99 0 -85 16 -102 93 -102 34 0 67 4 74 8 15 10 33 57 33 88 0 21 -4 24 -40 24 -38 0 -40 -2 -40 -30 0 -20 -5 -30 -15 -30 -10 0 -15 10 -15 29 0 23 10 38 44 66 131 107 77 300 -70 249z"/>
 <path d="M2090 482 c-53 -26 -60 -49 -60 -208 0 -129 2 -144 21 -168 20 -25 26 -27 88 -24 64 3 66 4 83 38 14 28 18 61 18 158 0 147 -12 185 -64 207 -44 19 -44 19 -86 -3z m50 -207 c0 -178 -18 -178 -22 0 -2 103 0 135 10 135 9 0 12 -34 12 -135z"/>
 <path d="M2334 489 c-64 -18 -69 -34 -69 -209 0 -196 3 -202 104 -198 64 3 66 4 83 38 14 28 18 61 18 158 0 145 -13 186 -66 208 -19 8 -35 14 -36 13 -2 0 -17 -5 -34 -10z m46 -214 c0 -178 -18 -178 -22 0 -2 103 0 135 10 135 9 0 12 -34 12 -135z"/>
 <path d="M2765 491 c-54 -17 -71 -43 -74 -113 -2 -47 -2 -48 27 -48 50 0 60 8 55 46 -3 25 0 34 12 34 10 0 15 -10 15 -30 0 -24 -12 -41 -52 -79 -49 -46 -52 -51 -56 -110 -7 -91 10 -111 91 -111 34 0 68 4 76 9 14 9 33 90 25 103 -3 5 -23 8 -44 8 -35 0 -39 -3 -42 -27 -4 -37 -22 -36 -26 2 -2 26 4 34 39 55 60 36 79 72 79 148 0 53 -4 67 -25 87 -13 14 -31 25 -39 25 -8 0 -20 2 -28 4 -7 2 -22 1 -33 -3z"/>
 <path d="M27 484 c-4 -4 -7 -97 -7 -206 l0 -198 50 0 50 0 -2 203 -3 202 -40 3 c-23 2 -44 0 -48 -4z"/>
 <path d="M157 484 c-4 -4 -7 -97 -7 -206 l0 -198 75 0 c99 0 115 14 115 103 0 36 -5 68 -12 75 -9 9 -9 15 0 24 8 8 12 47 12 110 l0 98 -35 0 -34 0 -3 -92 c-2 -60 -7 -93 -15 -95 -9 -3 -13 21 -15 89 l-3 93 -35 3 c-20 2 -39 0 -43 -4z m113 -294 c0 -29 -4 -40 -15 -40 -11 0 -15 11 -15 40 0 29 4 40 15 40 11 0 15 -11 15 -40z"/>
 <path d="M387 483 c-4 -3 -7 -96 -7 -205 l0 -198 40 0 40 0 0 205 0 205 -33 0 c-19 0 -37 -3 -40 -7z"/>
 <path d="M507 484 c-4 -4 -7 -97 -7 -206 l0 -198 75 0 75 0 0 40 c0 38 -2 40 -30 40 -28 0 -30 3 -30 35 0 32 2 35 31 35 29 0 30 1 27 43 -3 38 -6 42 -30 45 -25 3 -28 7 -28 43 0 38 1 39 36 39 l35 0 -3 43 -3 42 -70 3 c-39 1 -74 0 -78 -4z"/>
 <path d="M781 467 c-5 -12 -12 -54 -16 -92 -4 -39 -13 -114 -21 -167 -20 -137 -22 -128 35 -128 l50 0 7 80 c3 44 11 80 17 80 6 0 7 -16 4 -40 -3 -22 -1 -40 4 -40 5 0 9 -18 9 -40 l0 -40 46 0 47 0 -7 53 c-3 28 -11 101 -17 160 -6 60 -13 127 -17 150 l-7 42 -63 3 c-57 3 -63 1 -71 -21z"/>
 <path d="M987 483 c-4 -3 -7 -96 -7 -205 l0 -198 40 0 40 0 0 205 0 205 -33 0 c-19 0 -37 -3 -40 -7z"/>
 <path d="M1108 484 c-5 -4 -8 -97 -8 -206 l0 -198 73 0 c61 0 77 3 92 20 26 28 32 113 11 145 -9 14 -12 25 -7 25 32 0 39 166 8 197 -16 16 -157 30 -169 17z m102 -134 c0 -38 -4 -50 -15 -50 -11 0 -15 12 -15 50 0 38 4 50 15 50 11 0 15 -12 15 -50z m0 -160 c0 -29 -4 -40 -15 -40 -11 0 -15 11 -15 40 0 29 4 40 15 40 11 0 15 -11 15 -40z"/>
 <path d="M1337 484 c-4 -4 -7 -97 -7 -206 l0 -198 75 0 75 0 0 40 c0 38 -2 40 -30 40 -28 0 -30 3 -30 35 0 32 2 35 30 35 29 0 30 2 30 45 0 44 -1 45 -31 45 -29 0 -30 2 -27 38 3 34 6 37 36 40 32 3 33 4 30 45 l-3 42 -70 3 c-39 1 -74 0 -78 -4z"/>
 <path d="M1807 484 c-4 -4 -7 -97 -7 -206 l0 -198 78 0 c102 0 117 13 117 106 0 44 -4 67 -14 73 -11 7 -10 13 3 34 13 19 16 44 14 108 l-3 84 -37 3 -37 3 -3 -92 c-2 -61 -7 -94 -15 -96 -9 -3 -13 21 -15 89 l-3 93 -35 3 c-20 2 -39 0 -43 -4z m113 -294 c0 -29 -4 -40 -15 -40 -11 0 -15 11 -15 40 0 29 4 40 15 40 11 0 15 -11 15 -40z"/>
 <path d="M2540 325 l0 -165 -30 0 c-28 0 -30 -2 -30 -40 l0 -40 95 0 95 0 0 40 c0 36 -2 40 -25 40 l-25 0 0 165 0 165 -40 0 -40 0 0 -165z"/>
 </g>

</svg>