<?xml version="1.0" encoding="utf-8"?>
<svg version="1.0" width="64px" height="64px" viewBox="0 0 64 64" preserveAspectRatio="xMidYMid meet" xmlns="http://www.w3.org/2000/svg">
  <g fill="#674b35">
    <path d="M46.7 17.3 c-0.4 -0.3 -0.7 -2.4 -0.7 -4.5 0 -3.6 0.1 -3.8 3.3 -3.7 1.7 0 2.6 0.3 2 0.6 -1.5 0.6 -1.7 4.3 -0.3 4.3 0.6 0 1 -0.7 1 -1.5 0 -1 1 -1.5 3 -1.5 2.8 0 3 0.3 3 3.5 l0 3.5 -5.3 0 c-3 0 -5.7 -0.3 -6 -0.7z"/>
  </g>
  <g fill="#7f4e39" transform="matrix(1, 0, 0, 1, -1.260153, -6.300763)">
    <path d="M 29.454 54.173 L 26.286 50.558 L 27.6 51.2 C 30.9 50.8 31.2 51.1 30.8 55.1 L 31.579 56.846 L 29.454 54.173 Z"/>
    <path d="M 29.454 54.173 L 26.286 50.558 L 27.6 51.2 C 30.9 50.8 31.2 51.1 30.8 55.1 L 31.579 56.846 L 29.454 54.173 Z" transform="matrix(1, 0, 0, 1, 1.286443, 6.999869)"/>
    <g fill="#855a47" transform="matrix(1, 0, 0, 1, 1.286443, 6.999869)"/>
    <path d="M7.4 8.1 c1 -1 2.6 -2.1 3.7 -2.4 1.5 -0.4 1.9 0 1.9 1.9 0 2.1 -0.5 2.4 -3.7 2.4 -3.5 0 -3.6 -0.1 -1.9 -1.9z" transform="matrix(1, 0, 0, 1, 1.286443, 6.999869)"/>
    <path d="M39.7 38.3 c-0.4 -0.3 -0.7 -2.2 -0.7 -4.1 0 -3.4 0 -3.4 4 -3 l4 0.4 0 -3.8 c0 -3.7 0.1 -3.8 2.8 -3.2 1.5 0.4 3.2 1.1 3.9 1.6 0.7 0.6 1.4 0.5 1.8 -0.2 0.4 -0.6 -0.1 -1.8 -1.1 -2.6 -1.7 -1.3 -1.7 -1.5 -0.3 -2.4 1.1 -0.6 1.5 -2.1 1.4 -4.2 -0.4 -4.8 -0.4 -4.8 -2 -4.8 -0.9 0 -1.5 -0.9 -1.5 -2.5 0 -1.4 -0.4 -2.5 -1 -2.5 -0.5 0 -1 0.9 -1 1.9 0 1.1 -0.4 2.3 -1 2.6 -0.5 0.3 -1 1.5 -1 2.6 0 1.4 -0.7 1.9 -2.5 1.9 -1.4 0 -2.5 0.5 -2.5 1 0 0.6 -1.6 1 -3.5 1 -3.3 0 -3.5 -0.2 -3.5 -3.5 0 -1.9 0.4 -3.5 0.9 -3.5 0.5 0 1.3 -0.9 1.6 -2 0.3 -1.1 1.5 -2 2.5 -2 1 0 2 -0.6 2.3 -1.4 0.6 -1.6 5.5 -1.4 10 0.3 2.1 0.8 2.7 1.7 2.7 4.1 0 2.3 0.5 3 1.9 3 1.6 0 2 1 2.6 6.2 0.5 4.3 0.4 6.3 -0.4 6.6 -0.6 0.2 -1.1 1.5 -1.1 2.8 0 1.5 -0.6 2.4 -1.5 2.4 -0.9 0 -1.5 0.9 -1.5 2.5 0 2.3 -0.4 2.5 -4 2.5 -2.9 0 -4 0.4 -4 1.5 0 1.1 -1.1 1.5 -3.8 1.5 -2.1 0 -4.2 -0.3 -4.5 -0.7z" transform="matrix(1, 0, 0, 1, 1.286443, 6.999869)"/>
    <path d="M7 17.5 c0 -3.4 0.1 -3.5 4 -3.5 3.9 0 4 0.1 4 3.5 0 3.4 -0.1 3.5 -4 3.5 -3.9 0 -4 -0.1 -4 -3.5z" transform="matrix(1, 0, 0, 1, 1.286443, 6.999869)"/>
    <path d="M22 7.4 c0 -2.2 0.3 -2.4 2.3 -1.9 1.2 0.4 3.1 1.6 4.2 2.6 1.9 1.9 1.9 1.9 -2.3 1.9 -3.8 0 -4.2 -0.2 -4.2 -2.6z" transform="matrix(1, 0, 0, 1, 1.286443, 6.999869)"/>
  </g>
  <g fill="#855a47">
    <path d="M 30.681 56.818 C 26.081 51.318 25.2 52 32 52 L 38.3 52 L 35.708 53.477 C 32.608 57.477 31.608 57.777 29.808 55.577 L 30.681 56.818 Z"/>
  </g>
  <g fill="#995c42">
    <path d="M49 15.9 c0 -1.2 0.4 -1.7 1.1 -1.4 0.6 0.4 1.3 -0.2 1.6 -1.4 0.3 -1.4 1.3 -2.1 2.9 -2.1 2.1 0 2.4 0.5 2.4 3.5 0 3.4 -0.1 3.5 -4 3.5 -3.4 0 -4 -0.3 -4 -2.1z"/>
  </g>
  <g fill="#986452">
    <path d="M24.1 50.5 l-3.3 -3.5 3.6 0 c3.4 0 3.6 0.2 3.6 3.5 0 1.9 -0.1 3.5 -0.3 3.5 -0.1 0 -1.7 -1.6 -3.6 -3.5z"/>
    <path d="M 51 23.5 C 51 19.3 50.8 19 48.4 19 C 45.8 19 45.7 18.9 46.4 13.5 L 47 8 L 41.4 8.6 C 36.8 9.2 34.772 10.214 35.433 8.533 C 35.734 7.768 42.372 3.71 46.8 4.1 C 51.383 4.504 54 5.6 54 8.5 C 54 9.9 54.5 11 55 11 C 55.6 11 56 10.3 56 9.4 C 56 8 61 14.3 59.7 15.2 C 59.1 15.5 58.4 18.6 58.2 21.9 L 57.8 28 L 54.4 28 C 51 28 51 27.9 51 23.5 Z M 49.6 11.6 C 48.7 15.134 52 13.549 52 11.9 C 52 9.6 50.5 8.066 49.6 11.6 Z"/>
    <path d="M3.7 13.3 c1.7 -4.9 8.2 -9.3 13.5 -9.2 4.4 0 10 2.1 10.6 3.8 0.4 1.1 -0.5 1.3 -4.7 0.8 -2.8 -0.3 -7.4 -0.3 -10.1 0 -4.7 0.5 -5 0.8 -5 3.4 0 2.4 -0.4 2.9 -2.5 2.9 -1.9 0 -2.3 -0.4 -1.8 -1.7z"/>
  </g>
  <g fill="#a66444">
    <path d="M48 31.5 c0 -3.4 0.1 -3.5 4 -3.5 3.9 0 4 0.1 4 3.5 0 3.4 -0.1 3.5 -4 3.5 -3.9 0 -4 -0.1 -4 -3.5z"/>
    <path d="M7.4 8.1 c1 -1 2.6 -2.1 3.7 -2.4 1.5 -0.4 1.9 0 1.9 1.9 0 2.1 -0.5 2.4 -3.7 2.4 -3.5 0 -3.6 -0.1 -1.9 -1.9z"/>
  </g>
  <g fill="#a66a50">
    <path d="M40 34.5 c0 -3.4 0.1 -3.5 4 -3.5 3.9 0 4 0.1 4 3.5 0 3.4 -0.1 3.5 -4 3.5 -3.9 0 -4 -0.1 -4 -3.5z"/>
    <path d="M 50.5 29.1 C 50.2 28.5 49 28 47.9 28 C 46.4 28 46 27.3 46 24.7 C 46 22.9 46.6 20.8 47.2 20.2 C 47.9 19.5 48.4 17.3 48.3 15.2 C 48.2 13.2 48.4 12.5 48.7 13.8 C 49.2 16.4 50.5 16.7 51.4 14.4 C 52.3 11.9 52.1 8 51 8 C 50.5 8 50 8.7 50 9.5 C 50 10.3 49.3 11 48.5 11 C 46.7 11 45.632 4.561 47.516 4.337 C 49.879 4.056 55 6.3 55 7.7 C 55 8.4 55.6 9 56.4 9 C 58.2 9 59.3 15.2 58.8 23.5 L 58.5 29.5 L 54.8 29.8 C 52.8 30 50.9 29.6 50.5 29.1 Z M 54.767 19.433 C 54.767 18.933 54.083 18.367 53.283 18.367 C 52.483 18.367 52 19.5 52 20 C 52 20.6 52.7 21 53.5 21 C 54.3 21 54.767 20.033 54.767 19.433 Z M 52.5 15 C 52.8 15.6 53.95 14.133 53.133 13.433 C 52.316 12.733 52.2 14.5 52.5 15 Z"/>
  </g>
  <g fill="#bd6b4a">
    <path d="M 39.7 38.3 C 39.3 38 39 36.1 39 34.2 C 39 30.8 39 30.8 43 31.2 L 47 31.6 L 47 27.8 C 47 24.1 47.1 24 49.8 24.6 C 51.3 25 53 25.7 53.7 26.2 C 54.4 26.8 55.1 26.7 55.5 26 C 55.9 25.4 55.4 24.2 54.4 23.4 C 52.7 22.1 52.7 21.9 54.1 21 C 55.2 20.4 55.6 18.9 55.5 16.8 C 55.1 12 55.1 12 53.5 12 C 52.6 12 52 11.1 52 9.5 C 52 8.1 51.6 7 51 7 C 50.5 7 50 7.9 50 8.9 C 50 10 49.6 11.2 49 11.5 C 48.5 11.8 48 13 48 14.1 C 48 15.5 47.3 16 45.5 16 C 44.1 16 43 16.5 43 17 C 43 17.6 41.4 18 39.5 18 C 36.2 18 36 17.8 36 14.5 C 36 12.6 36.4 11 36.9 11 C 37.4 11 38.2 10.1 38.5 9 C 38.8 7.9 40 7 41 7 C 42 7 43 6.4 43.3 5.6 C 43.9 4 48.734 4.399 53.234 6.099 C 55.334 6.899 56 7.6 56 10 C 56 12.3 56.5 13 57.9 13 C 59.5 13 59.9 14 60.5 19.2 C 61 23.5 60.9 25.5 60.1 25.8 C 59.5 26 59 27.3 59 28.6 C 59 30.1 58.4 31 57.5 31 C 56.6 31 56 31.9 56 33.5 C 56 35.8 55.6 36 52 36 C 49.1 36 48 36.4 48 37.5 C 48 38.6 46.9 39 44.2 39 C 42.1 39 40 38.7 39.7 38.3 Z"/>
    <path d="M 16.783 28.655 C 16.483 27.855 16.383 25.955 16.583 24.355 C 16.883 21.755 17.283 21.555 20.883 21.555 C 24.883 21.555 24.883 21.555 25.183 25.855 L 25.483 30.055 L 21.383 30.055 C 18.783 30.055 17.083 29.555 16.783 28.655 Z"/>
    <path d="M7 17.5 c0 -3.4 0.1 -3.5 4 -3.5 3.9 0 4 0.1 4 3.5 0 3.4 -0.1 3.5 -4 3.5 -3.9 0 -4 -0.1 -4 -3.5z"/>
  </g>
  <g fill="#b56f54">
    <path d="M22 7.4 c0 -2.2 0.3 -2.4 2.3 -1.9 1.2 0.4 3.1 1.6 4.2 2.6 1.9 1.9 1.9 1.9 -2.3 1.9 -3.8 0 -4.2 -0.2 -4.2 -2.6z"/>
  </g>
  <g fill="#ae715f">
    <path d="M50 21.1 c0 -1.2 0.5 -2.1 1 -2.1 0.6 0 1 0.6 1 1.4 0 0.8 -0.4 1.8 -1 2.1 -0.5 0.3 -1 -0.3 -1 -1.4z"/>
  </g>
  <g fill="#cc7453">
    <path d="M 27.5 54 C 25.3 51.3 20.2 46.8 17.3 44.1 C 14.4 41.4 9.7 38.3 7.8 36.1 C 1.5 28.8 0.2 18.8 4.5 12 C 9.9 3.4 21.5 2.1 29.7 9.3 C 31.9 11.2 31.9 11.2 35 8.7 C 38.8 5.5 44.4 3.8 47.3 5 C 49 5.7 49.1 5.9 47.8 5.9 C 45.3 6 45.5 9 48 9 C 49.1 9 50 9.1 50 9.3 C 50 9.4 49.6 10.9 49.1 12.6 C 48.4 15.2 48.6 16 50.1 17.4 C 52.6 19.5 52.5 22.1 50 22.7 C 47.6 23.3 47.4 25.3 49.5 27 C 50.4 27.7 50.9 29.2 50.8 30.3 C 50.6 31.4 51.1 32.5 51.8 32.7 C 52.5 33 53 32.2 53 30.6 C 53 29 53.6 28 54.4 28 C 57.7 28 58.1 18.6 55.1 13.5 C 53.3 10.4 51.8 6 52.7 6 C 54.4 6 57.4 8.7 59.5 12 C 63.8 18.8 62.4 28.8 56.3 35.9 C 54 38.6 47.3 43.5 44.6 45.9 C 41.9 48.2 38.2 52 36.3 54.3 C 34.3 56.6 32.5 58.6 32.1 58.8 C 31.8 58.9 29.7 56.8 27.5 54 Z M 44.1 10.7 C 43.2 9.8 42.7 9.9 42 11 C 41.3 12.1 41.6 12.7 42.8 13.1 C 44.9 13.9 45.7 12.3 44.1 10.7 Z"/>
  </g>
  <g fill="#c3775c">
    <path d="M46 13 c0 -0.5 0.7 -1 1.5 -1 0.8 0 1.5 0.5 1.5 1 0 0.6 -0.7 1 -1.5 1 -0.8 0 -1.5 -0.4 -1.5 -1z"/>
  </g>
</svg>