<?xml version="1.0" encoding="utf-8"?>
<svg version="1.0" width="64px" height="64px" viewBox="0 0 64 64" preserveAspectRatio="xMidYMid meet" xmlns="http://www.w3.org/2000/svg">
  <g fill="#cc7351">
    <path d="M 29.261 57.461 C 28.116 56.214 28.366 54.101 24.292 49.894 C 21.437 46.946 15.619 42.764 13 40.9 C 6.7 36.3 4.1 32.4 1.9 24 C 0.9 20 1 19 2.8 14.9 C 5.1 9.8 9.7 5.4 13.6 4.4 C 17.6 3.4 24.8 5 27.9 7.6 C 29.7 9.1 31.866 11.974 32.185 11.974 C 32.504 11.974 34.3 9.1 36.1 7.6 C 39.2 5 46.4 3.4 50.4 4.4 C 54.3 5.4 58.9 9.8 61.2 14.9 C 63 19 63.1 20 62.1 24 C 59.9 32.4 57.356 36.378 51 40.9 C 48.489 42.687 45.775 45.494 40.992 49.538 C 36.251 53.546 36.036 55.807 34.462 57.276 C 32.689 58.93 32.177 60.108 31.908 60.108 C 31.639 60.108 30.9 59.247 29.261 57.461 Z M 52 12 C 52 10.9 51.6 10 51 10 C 50.5 10 50 10.9 50 12 C 50 13.1 50.5 14.554 51 14.554 C 51.6 14.554 52 13.1 52 12 Z"/>
  </g>
</svg>